<svg xmlns="http://www.w3.org/2000/svg" xmlns:xlink="http://www.w3.org/1999/xlink" width="1080" zoomAndPan="magnify" viewBox="0 0 810 1012.49997" height="1350" preserveAspectRatio="xMidYMid meet" version="1.0"><defs><clipPath id="2027bbb902"><path d="M 0.199219 0 L 809.800781 0 L 809.800781 1012 L 0.199219 1012 Z M 0.199219 0 " clip-rule="nonzero"/></clipPath><clipPath id="792ccd0b97"><path d="M 9.515625 1.078125 L 416.738281 1.078125 L 416.738281 277 L 9.515625 277 Z M 9.515625 1.078125 " clip-rule="nonzero"/></clipPath><clipPath id="09713fecfd"><path d="M 256.929688 144.097656 L 582 144.097656 L 582 334 L 256.929688 334 Z M 256.929688 144.097656 " clip-rule="nonzero"/></clipPath><clipPath id="f903b6c978"><path d="M 363 189 L 679.832031 189 L 679.832031 430 L 363 430 Z M 363 189 " clip-rule="nonzero"/></clipPath><clipPath id="31c042aa31"><path d="M 660.832031 212.621094 L 620.53125 189.351562 L 383.265625 327.234375 C 369.917969 334.992188 363.257812 344.328125 363.320312 355.242188 C 363.382812 366.160156 370.144531 375.496094 383.582031 383.25 L 464.183594 429.789062 L 504.21875 406.519531 L 423.617188 359.984375 C 421.371094 358.683594 420.238281 357.105469 420.226562 355.242188 C 420.21875 353.378906 421.332031 351.800781 423.566406 350.503906 L 550.355469 276.820312 L 639.171875 328.097656 L 679.207031 304.828125 L 590.394531 253.550781 Z M 660.832031 212.621094 " clip-rule="nonzero"/></clipPath><clipPath id="b19650dd9f"><path d="M 0.148438 0.175781 L 316 0.175781 L 316 241 L 0.148438 241 Z M 0.148438 0.175781 " clip-rule="nonzero"/></clipPath><clipPath id="1955f762a1"><path d="M 297.832031 23.621094 L 257.53125 0.351562 L 20.265625 138.234375 C 6.917969 145.992188 0.257812 155.328125 0.320312 166.242188 C 0.382812 177.160156 7.144531 186.496094 20.582031 194.25 L 101.183594 240.789062 L 141.21875 217.519531 L 60.617188 170.984375 C 58.371094 169.683594 57.238281 168.105469 57.226562 166.242188 C 57.21875 164.378906 58.332031 162.800781 60.566406 161.503906 L 187.355469 87.820312 L 276.171875 139.097656 L 316.207031 115.828125 L 227.394531 64.550781 Z M 297.832031 23.621094 " clip-rule="nonzero"/></clipPath><clipPath id="496526f151"><rect x="0" width="317" y="0" height="241"/></clipPath><clipPath id="3f8585dd07"><path d="M 8.878906 166.753906 L 98 166.753906 L 98 549 L 8.878906 549 Z M 8.878906 166.753906 " clip-rule="nonzero"/></clipPath><clipPath id="a5b8f5daca"><path d="M 50.042969 190.070312 L 9.660156 166.753906 L 9.269531 304.238281 L 8.882812 441.722656 C 8.835938 457.191406 13.527344 473.105469 22.984375 489.449219 C 32.414062 505.816406 43.871094 517.875 57.332031 525.644531 L 97.714844 548.957031 L 97.84375 502.554688 L 57.460938 479.242188 C 55.226562 477.949219 53.292969 475.90625 51.683594 473.097656 C 50.058594 470.300781 49.253906 467.609375 49.261719 465.035156 Z M 50.042969 190.070312 " clip-rule="nonzero"/></clipPath><clipPath id="14f6cd7005"><path d="M 0.878906 0.753906 L 90 0.753906 L 90 382.996094 L 0.878906 382.996094 Z M 0.878906 0.753906 " clip-rule="nonzero"/></clipPath><clipPath id="a40964207e"><path d="M 42.042969 24.070312 L 1.660156 0.753906 L 1.269531 138.238281 L 0.882812 275.722656 C 0.835938 291.191406 5.527344 307.105469 14.984375 323.449219 C 24.414062 339.816406 35.871094 351.875 49.332031 359.644531 L 89.714844 382.957031 L 89.84375 336.554688 L 49.460938 313.242188 C 47.226562 311.949219 45.292969 309.90625 43.683594 307.097656 C 42.058594 304.300781 41.253906 301.609375 41.261719 299.035156 Z M 42.042969 24.070312 " clip-rule="nonzero"/></clipPath><clipPath id="bcf2e29529"><rect x="0" width="90" y="0" height="383"/></clipPath><clipPath id="18685a743d"><path d="M 120.878906 312.875 L 341 312.875 L 341 689 L 120.878906 689 Z M 120.878906 312.875 " clip-rule="nonzero"/></clipPath><clipPath id="68211ffbdd"><path d="M 358.554688 368.613281 L 579 368.613281 L 579 806 L 358.554688 806 Z M 358.554688 368.613281 " clip-rule="nonzero"/></clipPath><clipPath id="7605651ba6"><path d="M 359.800781 334.085938 L 392 334.085938 L 392 387 L 359.800781 387 Z M 359.800781 334.085938 " clip-rule="nonzero"/></clipPath><clipPath id="469b382692"><path d="M 0.792969 157.191406 L 14.429688 157.191406 L 14.429688 174.703125 L 0.792969 174.703125 Z M 0.792969 157.191406 " clip-rule="nonzero"/></clipPath><clipPath id="e5ece8ec0b"><path d="M 9.734375 173.511719 C 9.734375 173.511719 9.664062 167.378906 13.488281 165.15625 C 17.316406 162.929688 7.535156 157.425781 7.535156 157.425781 C 7.535156 157.425781 6.835938 156.671875 4.519531 158.230469 C 2.207031 159.792969 1.023438 163.695312 0.863281 165.378906 C 0.703125 167.054688 0.808594 169.476562 1.238281 170.554688 C 1.671875 171.628906 3.714844 174.695312 3.875 174.695312 C 4.035156 174.695312 9.734375 173.511719 9.734375 173.511719 Z M 9.734375 173.511719 " clip-rule="nonzero"/></clipPath><clipPath id="a426026f57"><path d="M 0.792969 0.191406 L 14.429688 0.191406 L 14.429688 17.703125 L 0.792969 17.703125 Z M 0.792969 0.191406 " clip-rule="nonzero"/></clipPath><clipPath id="260a428c7d"><path d="M 9.734375 16.511719 C 9.734375 16.511719 9.664062 10.378906 13.488281 8.15625 C 17.316406 5.929688 7.535156 0.425781 7.535156 0.425781 C 7.535156 0.425781 6.835938 -0.328125 4.519531 1.230469 C 2.207031 2.792969 1.023438 6.695312 0.863281 8.378906 C 0.703125 10.054688 0.808594 12.476562 1.238281 13.554688 C 1.671875 14.628906 3.714844 17.695312 3.875 17.695312 C 4.035156 17.695312 9.734375 16.511719 9.734375 16.511719 Z M 9.734375 16.511719 " clip-rule="nonzero"/></clipPath><clipPath id="23ebb9b1f4"><rect x="0" width="15" y="0" height="18"/></clipPath><clipPath id="cf88124e13"><path d="M 0.792969 0.191406 L 14.429688 0.191406 L 14.429688 17.703125 L 0.792969 17.703125 Z M 0.792969 0.191406 " clip-rule="nonzero"/></clipPath><clipPath id="b963e7de57"><path d="M 9.734375 16.511719 C 9.734375 16.511719 9.664062 10.378906 13.488281 8.15625 C 17.316406 5.929688 7.535156 0.425781 7.535156 0.425781 C 7.535156 0.425781 6.835938 -0.328125 4.519531 1.230469 C 2.207031 2.792969 1.023438 6.695312 0.863281 8.378906 C 0.703125 10.054688 0.808594 12.476562 1.238281 13.554688 C 1.671875 14.628906 3.714844 17.695312 3.875 17.695312 C 4.035156 17.695312 9.734375 16.511719 9.734375 16.511719 Z M 9.734375 16.511719 " clip-rule="nonzero"/></clipPath><clipPath id="7ab38e6fbf"><rect x="0" width="15" y="0" height="18"/></clipPath><clipPath id="76ff5c455c"><rect x="0" width="681" y="0" height="807"/></clipPath></defs><g clip-path="url(#2027bbb902)"></g><g transform="matrix(1, 0, 0, 1, 65, 103)"><g clip-path="url(#76ff5c455c)"><g clip-path="url(#792ccd0b97)"><path fill="#ffffff" d="M 335.273438 24.261719 L 294.972656 1.078125 L 9.515625 166.382812 L 181.160156 265.132812 C 194.59375 272.863281 210.71875 276.726562 229.582031 276.738281 C 248.410156 276.726562 264.523438 272.863281 277.867188 265.132812 L 396.5 196.433594 C 409.847656 188.707031 416.472656 179.40625 416.425781 168.535156 C 416.351562 157.648438 409.621094 148.34375 396.183594 140.617188 L 264.839844 65.050781 L 335.273438 24.261719 M 98.066406 171.109375 C 95.816406 169.8125 94.703125 168.246094 94.675781 166.382812 C 94.664062 164.527344 95.777344 162.953125 98.011719 161.660156 L 216.640625 92.960938 C 218.859375 91.675781 221.585938 91.027344 224.796875 91.027344 C 228.03125 91.039062 230.761719 91.667969 233.011719 92.960938 L 356.144531 163.800781 C 358.382812 165.085938 359.492188 166.671875 359.519531 168.535156 C 359.53125 170.390625 358.417969 171.964844 356.199219 173.25 L 237.570312 241.949219 C 235.332031 243.242188 232.609375 243.890625 229.394531 243.890625 C 226.164062 243.878906 223.433594 243.234375 221.199219 241.949219 Z M 98.066406 171.109375 " fill-opacity="1" fill-rule="nonzero"/></g><g clip-path="url(#09713fecfd)"><path fill="#ffffff" d="M 581.644531 167.402344 L 541.472656 144.097656 L 501.5625 167.402344 L 541.734375 190.710938 L 581.644531 167.402344 M 511.4375 208.402344 L 471.265625 185.09375 L 256.929688 310.257812 L 297.101562 333.5625 Z M 511.4375 208.402344 " fill-opacity="1" fill-rule="nonzero"/></g><g clip-path="url(#f903b6c978)"><g clip-path="url(#31c042aa31)"><g transform="matrix(1, 0, 0, 1, 363, 189)"><g clip-path="url(#496526f151)"><g clip-path="url(#b19650dd9f)"><g clip-path="url(#1955f762a1)"><path fill="#ffffff" d="M 0.320312 0.351562 L 315.894531 0.351562 L 315.894531 240.789062 L 0.320312 240.789062 Z M 0.320312 0.351562 " fill-opacity="1" fill-rule="nonzero"/></g></g></g></g></g></g><g clip-path="url(#3f8585dd07)"><g clip-path="url(#a5b8f5daca)"><g transform="matrix(1, 0, 0, 1, 8, 166)"><g clip-path="url(#bcf2e29529)"><g clip-path="url(#14f6cd7005)"><g clip-path="url(#a40964207e)"><path fill="#ffffff" d="M 0.878906 0.753906 L 89.84375 0.753906 L 89.84375 383.019531 L 0.878906 383.019531 Z M 0.878906 0.753906 " fill-opacity="1" fill-rule="nonzero"/></g></g></g></g></g></g><g clip-path="url(#18685a743d)"><path fill="#ffffff" d="M 292.375 411.835938 L 121.421875 312.875 L 121.289062 359.121094 L 292.242188 458.078125 C 294.484375 459.375 296.390625 461.402344 298.003906 464.191406 C 299.605469 466.988281 300.402344 469.667969 300.394531 472.234375 L 300.265625 517.625 L 121.136719 413.933594 L 120.878906 505.550781 C 120.832031 520.964844 125.496094 536.828125 134.882812 553.105469 C 144.265625 569.421875 155.65625 581.4375 169.035156 589.1875 L 339.988281 688.144531 L 340.53125 495.464844 C 340.574219 480.054688 335.914062 464.210938 326.527344 447.894531 C 317.125 431.605469 305.753906 419.578125 292.375 411.835938 M 169.164062 542.941406 C 166.941406 541.65625 165.019531 539.617188 163.40625 536.808594 C 161.804688 534.03125 161.007812 531.347656 161.015625 528.785156 L 161.140625 483.390625 L 300.132812 563.847656 L 299.980469 618.667969 Z M 169.164062 542.941406 " fill-opacity="1" fill-rule="nonzero"/></g><g clip-path="url(#68211ffbdd)"><path fill="#ffffff" d="M 399.625 391.910156 L 359.488281 368.613281 L 358.554688 699.179688 L 529.523438 798.414062 C 542.902344 806.179688 554.304688 807.359375 563.753906 801.929688 C 573.199219 796.535156 577.953125 786.097656 577.996094 770.644531 L 578.382812 633.265625 C 578.425781 617.8125 573.75 601.917969 564.363281 585.558594 C 554.980469 569.234375 543.605469 557.175781 530.226562 549.410156 L 399.394531 473.476562 L 399.625 391.910156 M 407 680.859375 C 404.777344 679.566406 402.855469 677.523438 401.257812 674.71875 C 399.640625 671.921875 398.84375 669.234375 398.851562 666.664062 L 399.238281 529.289062 C 399.246094 526.71875 400.054688 524.960938 401.679688 524.03125 C 403.292969 523.109375 405.21875 523.296875 407.441406 524.585938 L 530.09375 595.777344 C 532.320312 597.066406 534.242188 599.109375 535.839844 601.898438 C 537.441406 604.703125 538.253906 607.402344 538.246094 609.96875 L 537.859375 747.347656 C 537.851562 749.917969 537.023438 751.660156 535.414062 752.585938 C 533.804688 753.527344 531.878906 753.339844 529.652344 752.046875 Z M 407 680.859375 " fill-opacity="1" fill-rule="nonzero"/></g><g clip-path="url(#7605651ba6)"><path fill="#ffffff" d="M 373.042969 334.082031 C 373.042969 334.082031 359.316406 345.832031 359.816406 368.199219 L 384.214844 386.714844 L 391.804688 374.359375 Z M 373.042969 334.082031 " fill-opacity="1" fill-rule="nonzero"/></g><g clip-path="url(#469b382692)"><g clip-path="url(#e5ece8ec0b)"><g transform="matrix(1, 0, 0, 1, 0.000000000000014211, 157)"><g clip-path="url(#23ebb9b1f4)"><g clip-path="url(#a426026f57)"><g clip-path="url(#260a428c7d)"><path fill="#ffffff" d="M 0.792969 0.242188 L 14.378906 0.242188 L 14.378906 17.703125 L 0.792969 17.703125 Z M 0.792969 0.242188 " fill-opacity="1" fill-rule="nonzero"/></g></g></g></g><g transform="matrix(1, 0, 0, 1, 0.000000000000014211, 157)"><g clip-path="url(#7ab38e6fbf)"><g clip-path="url(#cf88124e13)"><g clip-path="url(#b963e7de57)"><path fill="#ffffff" d="M 0.792969 0.242188 L 14.378906 0.242188 L 14.378906 17.703125 L 0.792969 17.703125 Z M 0.792969 0.242188 " fill-opacity="1" fill-rule="nonzero"/></g></g></g></g></g></g></g></g></svg>
